<?xml version="1.0" encoding="UTF-8" standalone="no"?>
<!DOCTYPE svg PUBLIC "-//W3C//DTD SVG 1.1//EN"
 "http://www.w3.org/Graphics/SVG/1.1/DTD/svg11.dtd">
<!-- Generated by graphviz version 2.40.1 (20161225.0304)
 -->
<!-- Title: dependencies Pages: 1 -->
<svg width="2090pt" height="284pt"
 viewBox="0.00 0.00 2090.00 284.00" xmlns="http://www.w3.org/2000/svg" xmlns:xlink="http://www.w3.org/1999/xlink">
<g id="graph0" class="graph" transform="scale(1 1) rotate(0) translate(4 280)">
<title>dependencies</title>
<polygon fill="#ffffff" stroke="transparent" points="-4,4 -4,-280 2086,-280 2086,4 -4,4"/>
<text text-anchor="start" x="1020.0091" y="-42.4" font-family="sans-serif" font-weight="bold" font-size="14.00" fill="#000000">Legend</text>
<polygon fill="#ffffb3" stroke="transparent" points="807,-10 807,-30 827,-30 827,-10 807,-10"/>
<text text-anchor="start" x="830.629" y="-15.4" font-family="sans-serif" font-size="14.00" fill="#000000"> &#160;Declarations</text>
<polygon fill="#8dd3c7" stroke="transparent" points="920,-10 920,-30 940,-30 940,-10 920,-10"/>
<text text-anchor="start" x="943.7251" y="-15.4" font-family="sans-serif" font-size="14.00" fill="#000000"> &#160;Module</text>
<polygon fill="#80b1d3" stroke="transparent" points="1006,-10 1006,-30 1026,-30 1026,-10 1006,-10"/>
<text text-anchor="start" x="1029.7812" y="-15.4" font-family="sans-serif" font-size="14.00" fill="#000000"> &#160;Bootstrap</text>
<polygon fill="#fdb462" stroke="transparent" points="1103,-10 1103,-30 1123,-30 1123,-10 1103,-10"/>
<text text-anchor="start" x="1126.6732" y="-15.4" font-family="sans-serif" font-size="14.00" fill="#000000"> &#160;Providers</text>
<polygon fill="#fb8072" stroke="transparent" points="1199,-10 1199,-30 1219,-30 1219,-10 1199,-10"/>
<text text-anchor="start" x="1222.7258" y="-15.4" font-family="sans-serif" font-size="14.00" fill="#000000"> &#160;Exports</text>
<g id="clust1" class="cluster">
<title>cluster_AppModule</title>
<polygon fill="none" stroke="#000000" stroke-dasharray="1,5" points="8,-70 8,-268 2074,-268 2074,-70 8,-70"/>
</g>
<g id="clust2" class="cluster">
<title>cluster_AppModule_declarations</title>
<polygon fill="none" stroke="#000000" points="776,-78 776,-130 2066,-130 2066,-78 776,-78"/>
</g>
<g id="clust12" class="cluster">
<title>cluster_AppModule_imports</title>
<polygon fill="none" stroke="#000000" points="16,-78 16,-130 768,-130 768,-78 16,-78"/>
</g>
<g id="clust14" class="cluster">
<title>cluster_AppModule_bootstrap</title>
<polygon fill="none" stroke="#000000" points="935,-208 935,-260 1059,-260 1059,-208 935,-208"/>
</g>
<!-- AppComponent -->
<g id="node1" class="node">
<title>AppComponent</title>
<polygon fill="#ffffb3" stroke="#000000" points="2057.9399,-122 1952.0601,-122 1952.0601,-86 2057.9399,-86 2057.9399,-122"/>
<text text-anchor="middle" x="2005" y="-99.8" font-family="Times,serif" font-size="14.00" fill="#000000">AppComponent</text>
</g>
<!-- AppModule -->
<g id="node10" class="node">
<title>AppModule</title>
<polygon fill="#8dd3c7" stroke="#000000" points="1038.6571,-187 1035.6571,-191 1014.6571,-191 1011.6571,-187 955.3429,-187 955.3429,-151 1038.6571,-151 1038.6571,-187"/>
<text text-anchor="middle" x="997" y="-164.8" font-family="Times,serif" font-size="14.00" fill="#000000">AppModule</text>
</g>
<!-- AppComponent&#45;&gt;AppModule -->
<g id="edge1" class="edge">
<title>AppComponent&#45;&gt;AppModule</title>
<path fill="none" stroke="#000000" d="M2005,-122.3228C2005,-145.6602 2005,-183 2005,-183 2005,-183 1048.7111,-183 1048.7111,-183"/>
<polygon fill="#000000" stroke="#000000" points="1048.7111,-179.5001 1038.7111,-183 1048.711,-186.5001 1048.7111,-179.5001"/>
</g>
<!-- BuilderComponent -->
<g id="node2" class="node">
<title>BuilderComponent</title>
<polygon fill="#ffffb3" stroke="#000000" points="1934.8258,-122 1811.1742,-122 1811.1742,-86 1934.8258,-86 1934.8258,-122"/>
<text text-anchor="middle" x="1873" y="-99.8" font-family="Times,serif" font-size="14.00" fill="#000000">BuilderComponent</text>
</g>
<!-- BuilderComponent&#45;&gt;AppModule -->
<g id="edge2" class="edge">
<title>BuilderComponent&#45;&gt;AppModule</title>
<path fill="none" stroke="#000000" d="M1873,-122.2921C1873,-144.2057 1873,-178 1873,-178 1873,-178 1048.662,-178 1048.662,-178"/>
<polygon fill="#000000" stroke="#000000" points="1048.662,-174.5001 1038.662,-178 1048.6619,-181.5001 1048.662,-174.5001"/>
</g>
<!-- ProgressComponent -->
<g id="node3" class="node">
<title>ProgressComponent</title>
<polygon fill="#ffffb3" stroke="#000000" points="1793.5408,-122 1664.4592,-122 1664.4592,-86 1793.5408,-86 1793.5408,-122"/>
<text text-anchor="middle" x="1729" y="-99.8" font-family="Times,serif" font-size="14.00" fill="#000000">ProgressComponent</text>
</g>
<!-- ProgressComponent&#45;&gt;AppModule -->
<g id="edge3" class="edge">
<title>ProgressComponent&#45;&gt;AppModule</title>
<path fill="none" stroke="#000000" d="M1729,-122.0267C1729,-142.7672 1729,-174 1729,-174 1729,-174 1048.7183,-174 1048.7183,-174"/>
<polygon fill="#000000" stroke="#000000" points="1048.7184,-170.5001 1038.7183,-174 1048.7183,-177.5001 1048.7184,-170.5001"/>
</g>
<!-- ControlComponent -->
<g id="node4" class="node">
<title>ControlComponent</title>
<polygon fill="#ffffb3" stroke="#000000" points="1646.1108,-122 1521.8892,-122 1521.8892,-86 1646.1108,-86 1646.1108,-122"/>
<text text-anchor="middle" x="1584" y="-99.8" font-family="Times,serif" font-size="14.00" fill="#000000">ControlComponent</text>
</g>
<!-- ControlComponent&#45;&gt;AppModule -->
<g id="edge4" class="edge">
<title>ControlComponent&#45;&gt;AppModule</title>
<path fill="none" stroke="#000000" d="M1584,-122.1061C1584,-141.3391 1584,-169 1584,-169 1584,-169 1048.745,-169 1048.745,-169"/>
<polygon fill="#000000" stroke="#000000" points="1048.745,-165.5001 1038.745,-169 1048.745,-172.5001 1048.745,-165.5001"/>
</g>
<!-- LivepreviewComponent -->
<g id="node5" class="node">
<title>LivepreviewComponent</title>
<polygon fill="#ffffb3" stroke="#000000" points="1504.0772,-122 1351.9228,-122 1351.9228,-86 1504.0772,-86 1504.0772,-122"/>
<text text-anchor="middle" x="1428" y="-99.8" font-family="Times,serif" font-size="14.00" fill="#000000">LivepreviewComponent</text>
</g>
<!-- LivepreviewComponent&#45;&gt;AppModule -->
<g id="edge5" class="edge">
<title>LivepreviewComponent&#45;&gt;AppModule</title>
<path fill="none" stroke="#000000" d="M1428,-122.302C1428,-140.2699 1428,-165 1428,-165 1428,-165 1048.7177,-165 1048.7177,-165"/>
<polygon fill="#000000" stroke="#000000" points="1048.7177,-161.5001 1038.7177,-165 1048.7177,-168.5001 1048.7177,-161.5001"/>
</g>
<!-- CartComponent -->
<g id="node6" class="node">
<title>CartComponent</title>
<polygon fill="#ffffb3" stroke="#000000" points="1333.9357,-122 1228.0643,-122 1228.0643,-86 1333.9357,-86 1333.9357,-122"/>
<text text-anchor="middle" x="1281" y="-99.8" font-family="Times,serif" font-size="14.00" fill="#000000">CartComponent</text>
</g>
<!-- CartComponent&#45;&gt;AppModule -->
<g id="edge6" class="edge">
<title>CartComponent&#45;&gt;AppModule</title>
<path fill="none" stroke="#000000" d="M1281,-122.027C1281,-138.3976 1281,-160 1281,-160 1281,-160 1048.9052,-160 1048.9052,-160"/>
<polygon fill="#000000" stroke="#000000" points="1048.9052,-156.5001 1038.9052,-160 1048.9051,-163.5001 1048.9052,-156.5001"/>
</g>
<!-- NotfoundComponent -->
<g id="node7" class="node">
<title>NotfoundComponent</title>
<polygon fill="#ffffb3" stroke="#000000" points="1210.4902,-122 1075.5098,-122 1075.5098,-86 1210.4902,-86 1210.4902,-122"/>
<text text-anchor="middle" x="1143" y="-99.8" font-family="Times,serif" font-size="14.00" fill="#000000">NotfoundComponent</text>
</g>
<!-- NotfoundComponent&#45;&gt;AppModule -->
<g id="edge7" class="edge">
<title>NotfoundComponent&#45;&gt;AppModule</title>
<path fill="none" stroke="#000000" d="M1143,-122.1871C1143,-137.1824 1143,-156 1143,-156 1143,-156 1048.8377,-156 1048.8377,-156"/>
<polygon fill="#000000" stroke="#000000" points="1048.8378,-152.5001 1038.8377,-156 1048.8377,-159.5001 1048.8378,-152.5001"/>
</g>
<!-- HeaderComponent -->
<g id="node8" class="node">
<title>HeaderComponent</title>
<polygon fill="#ffffb3" stroke="#000000" points="1057.7437,-122 936.2563,-122 936.2563,-86 1057.7437,-86 1057.7437,-122"/>
<text text-anchor="middle" x="997" y="-99.8" font-family="Times,serif" font-size="14.00" fill="#000000">HeaderComponent</text>
</g>
<!-- HeaderComponent&#45;&gt;AppModule -->
<g id="edge8" class="edge">
<title>HeaderComponent&#45;&gt;AppModule</title>
<path fill="none" stroke="#000000" d="M997,-122.1061C997,-122.1061 997,-140.991 997,-140.991"/>
<polygon fill="#000000" stroke="#000000" points="993.5001,-140.9909 997,-150.991 1000.5001,-140.991 993.5001,-140.9909"/>
</g>
<!-- SelectionComponent -->
<g id="node9" class="node">
<title>SelectionComponent</title>
<polygon fill="#ffffb3" stroke="#000000" points="917.9313,-122 784.0687,-122 784.0687,-86 917.9313,-86 917.9313,-122"/>
<text text-anchor="middle" x="851" y="-99.8" font-family="Times,serif" font-size="14.00" fill="#000000">SelectionComponent</text>
</g>
<!-- SelectionComponent&#45;&gt;AppModule -->
<g id="edge9" class="edge">
<title>SelectionComponent&#45;&gt;AppModule</title>
<path fill="none" stroke="#000000" d="M851,-122.1871C851,-137.1824 851,-156 851,-156 851,-156 945.1623,-156 945.1623,-156"/>
<polygon fill="#000000" stroke="#000000" points="945.1623,-159.5001 955.1623,-156 945.1622,-152.5001 945.1623,-159.5001"/>
</g>
<!-- AppComponent  -->
<g id="node16" class="node">
<title>AppComponent </title>
<polygon fill="#80b1d3" stroke="#000000" points="1051.439,-252 942.561,-252 942.561,-216 1051.439,-216 1051.439,-252"/>
<text text-anchor="middle" x="997" y="-229.8" font-family="Times,serif" font-size="14.00" fill="#000000">AppComponent </text>
</g>
<!-- AppModule&#45;&gt;AppComponent  -->
<g id="edge16" class="edge">
<title>AppModule&#45;&gt;AppComponent </title>
<path fill="none" stroke="#000000" stroke-dasharray="1,5" d="M997,-187.1061C997,-187.1061 997,-205.991 997,-205.991"/>
<polygon fill="#000000" stroke="#000000" points="993.5001,-205.9909 997,-215.991 1000.5001,-205.991 993.5001,-205.9909"/>
</g>
<!-- BrowserModule -->
<g id="node11" class="node">
<title>BrowserModule</title>
<polygon fill="#8dd3c7" stroke="#000000" points="760.4734,-122 757.4734,-126 736.4734,-126 733.4734,-122 653.5266,-122 653.5266,-86 760.4734,-86 760.4734,-122"/>
<text text-anchor="middle" x="707" y="-99.8" font-family="Times,serif" font-size="14.00" fill="#000000">BrowserModule</text>
</g>
<!-- BrowserModule&#45;&gt;AppModule -->
<g id="edge10" class="edge">
<title>BrowserModule&#45;&gt;AppModule</title>
<path fill="none" stroke="#000000" d="M707,-122.027C707,-138.3976 707,-160 707,-160 707,-160 945.1412,-160 945.1412,-160"/>
<polygon fill="#000000" stroke="#000000" points="945.1413,-163.5001 955.1412,-160 945.1412,-156.5001 945.1413,-163.5001"/>
</g>
<!-- HttpModule -->
<g id="node12" class="node">
<title>HttpModule</title>
<polygon fill="#8dd3c7" stroke="#000000" points="635.4387,-122 632.4387,-126 611.4387,-126 608.4387,-122 550.5613,-122 550.5613,-86 635.4387,-86 635.4387,-122"/>
<text text-anchor="middle" x="593" y="-99.8" font-family="Times,serif" font-size="14.00" fill="#000000">HttpModule</text>
</g>
<!-- HttpModule&#45;&gt;AppModule -->
<g id="edge11" class="edge">
<title>HttpModule&#45;&gt;AppModule</title>
<path fill="none" stroke="#000000" d="M593,-122.302C593,-140.2699 593,-165 593,-165 593,-165 945.2866,-165 945.2866,-165"/>
<polygon fill="#000000" stroke="#000000" points="945.2866,-168.5001 955.2866,-165 945.2865,-161.5001 945.2866,-168.5001"/>
</g>
<!-- routing -->
<g id="node13" class="node">
<title>routing</title>
<polygon fill="#8dd3c7" stroke="#000000" points="533.4435,-122 530.4435,-126 509.4435,-126 506.4435,-122 476.5565,-122 476.5565,-86 533.4435,-86 533.4435,-122"/>
<text text-anchor="middle" x="505" y="-99.8" font-family="Times,serif" font-size="14.00" fill="#000000">routing</text>
</g>
<!-- routing&#45;&gt;AppModule -->
<g id="edge12" class="edge">
<title>routing&#45;&gt;AppModule</title>
<path fill="none" stroke="#000000" d="M505,-122.1061C505,-141.3391 505,-169 505,-169 505,-169 945.0524,-169 945.0524,-169"/>
<polygon fill="#000000" stroke="#000000" points="945.0524,-172.5001 955.0524,-169 945.0523,-165.5001 945.0524,-172.5001"/>
</g>
<!-- AngularFireModule.initializeApp(args) -->
<g id="node14" class="node">
<title>AngularFireModule.initializeApp(args)</title>
<polygon fill="#8dd3c7" stroke="#000000" points="458.7057,-122 455.7057,-126 434.7057,-126 431.7057,-122 221.2943,-122 221.2943,-86 458.7057,-86 458.7057,-122"/>
<text text-anchor="middle" x="340" y="-99.8" font-family="Times,serif" font-size="14.00" fill="#000000">AngularFireModule.initializeApp(args)</text>
</g>
<!-- AngularFireModule.initializeApp(args)&#45;&gt;AppModule -->
<g id="edge13" class="edge">
<title>AngularFireModule.initializeApp(args)&#45;&gt;AppModule</title>
<path fill="none" stroke="#000000" d="M300.4657,-122.2921C300.4657,-144.2057 300.4657,-178 300.4657,-178 300.4657,-178 945.2562,-178 945.2562,-178"/>
<polygon fill="#000000" stroke="#000000" points="945.2563,-181.5001 955.2562,-178 945.2562,-174.5001 945.2563,-181.5001"/>
</g>
<!-- AngularFireModule.initializeApp(args)&#45;&gt;AppModule -->
<g id="edge14" class="edge">
<title>AngularFireModule.initializeApp(args)&#45;&gt;AppModule</title>
<path fill="none" stroke="#000000" d="M379.5343,-122.0267C379.5343,-142.7672 379.5343,-174 379.5343,-174 379.5343,-174 945.0445,-174 945.0445,-174"/>
<polygon fill="#000000" stroke="#000000" points="945.0446,-177.5001 955.0445,-174 945.0445,-170.5001 945.0446,-177.5001"/>
</g>
<!-- AngularFireDatabaseModule -->
<g id="node15" class="node">
<title>AngularFireDatabaseModule</title>
<polygon fill="#8dd3c7" stroke="#000000" points="203.771,-122 200.771,-126 179.771,-126 176.771,-122 24.229,-122 24.229,-86 203.771,-86 203.771,-122"/>
<text text-anchor="middle" x="114" y="-99.8" font-family="Times,serif" font-size="14.00" fill="#000000">AngularFireDatabaseModule</text>
</g>
<!-- AngularFireDatabaseModule&#45;&gt;AppModule -->
<g id="edge15" class="edge">
<title>AngularFireDatabaseModule&#45;&gt;AppModule</title>
<path fill="none" stroke="#000000" d="M114,-122.3228C114,-145.6602 114,-183 114,-183 114,-183 945.3007,-183 945.3007,-183"/>
<polygon fill="#000000" stroke="#000000" points="945.3008,-186.5001 955.3007,-183 945.3007,-179.5001 945.3008,-186.5001"/>
</g>
</g>
</svg>
